<svg xmlns="http://www.w3.org/2000/svg" xmlns:xlink="http://www.w3.org/1999/xlink" viewBox="0 0 128 128" width="128" height="128" preserveAspectRatio="xMidYMid meet" style="width: 100%; height: 100%; transform: translate3d(0px, 0px, 0px); content-visibility: visible;" id="Qr Code"><defs><clipPath id="__lottie_element_855"><rect width="128" height="128" x="0" y="0"/></clipPath></defs><g clip-path="url(#__lottie_element_855)"><g transform="matrix(1,0,0,1,15,16)" opacity="1" style="display: block;"><g opacity="1" transform="matrix(1,0,0,1,48.5,48.5)"><path stroke-linecap="round" stroke-linejoin="round" fill-opacity="0" stroke="rgb(255,255,255)" stroke-opacity="1" stroke-width="7" d=" M41.5,20.75 C41.5,20.75 41.5,23.5 41.5,23.5 C41.5,31.985000610351562 41.5,36.22800064086914 38.86399841308594,38.86399841308594 C36.22800064086914,41.5 31.985000610351562,41.5 23.5,41.5 C23.5,41.5 20.75,41.5 20.75,41.5 M41.5,-20.75 C41.5,-20.75 41.5,-23.5 41.5,-23.5 C41.5,-31.985000610351562 41.5,-36.22800064086914 38.86399841308594,-38.86399841308594 C36.22800064086914,-41.5 31.985000610351562,-41.5 23.5,-41.5 C23.5,-41.5 20.75,-41.5 20.75,-41.5 M-20.75,41.5 C-20.75,41.5 -23.5,41.5 -23.5,41.5 C-31.985000610351562,41.5 -36.22800064086914,41.5 -38.86399841308594,38.86399841308594 C-41.5,36.22800064086914 -41.5,31.985000610351562 -41.5,23.5 C-41.5,23.5 -41.5,20.75 -41.5,20.75 M-41.5,-20.75 C-41.5,-20.75 -41.5,-23.5 -41.5,-23.5 C-41.5,-31.985000610351562 -41.5,-36.22800064086914 -38.86399841308594,-38.86399841308594 C-36.22800064086914,-41.5 -31.985000610351562,-41.5 -23.5,-41.5 C-23.5,-41.5 -20.75,-41.5 -20.75,-41.5"/></g></g><g transform="matrix(1,0,0,1,19.5,61.5)" opacity="1" style="display: block;"><g opacity="1" transform="matrix(1,0,0,1,0,0)"><path stroke-linecap="round" stroke-linejoin="miter" fill-opacity="0" stroke-miterlimit="4" stroke="rgb(255,255,255)" stroke-opacity="1" stroke-width="7" d=" M3.5,3.5 C3.5,3.5 85.5,3.5 85.5,3.5"/></g></g></g></svg>